<?xml version="1.0" encoding="utf-8"?>
<!-- Generator: Adobe Illustrator 18.1.1, SVG Export Plug-In . SVG Version: 6.00 Build 0)  -->
<svg version="1.1" xmlns="http://www.w3.org/2000/svg" xmlns:xlink="http://www.w3.org/1999/xlink" x="0px" y="0px"
	 viewBox="0 0 120 60" enable-background="new 0 0 120 60" xml:space="preserve">
<g id="Layer_1">
	<rect fill="#FF00FF" width="120" height="60"/>
</g>
<g id="Layer_2">
</g>
<g id="Layer_3">
	<polygon fill="#FFFFFF" points="50,-30 24.9,-30 25,-25 20,-25 20,-30 14.9,-30 15,-25 10,-25 10,-30 4.9,-30 5,-25 0,-25 0,-30 
		-5,-30 -5,-25 -10,-25 -10,-30 -15,-30 -15,-25 -20,-25 -20,-30 -25.1,-30 -25,-25 -30,-25 -30,-30 -50,-30 -60,-20 -60,-10 
		-50,-10 -50,0 -50,10 -60,10 -60,20 -50,30 -30,30 -30,25 -25,25 -25.1,30 -20,30 -20,25 -15,25 -15,30 -10,30 -10,25 -5,25 -5,30 
		0,30 0,25 5,25 4.9,30 10,30 10,25 15,25 14.9,30 20,30 20,25 25,25 24.9,30 50,30 60,6.9 60,0 60,-6.9 	"/>
</g>
</svg>
